<svg width="128.000000" height="128.000000" viewBox="0 0 128 128" fill="none" xmlns="http://www.w3.org/2000/svg" xmlns:xlink="http://www.w3.org/1999/xlink">
	<desc>
			Created with Pixso.
	</desc>
	<defs>
		<clipPath id="clip2_5">
			<rect id="Develk" width="128.000000" height="128.000000" fill="white" fill-opacity="0"/>
		</clipPath>
	</defs>
	<rect id="Develk" width="128.000000" height="128.000000" fill="#FFFFFF" fill-opacity="0"/>
	<g clip-path="url(#clip2_5)">
		<circle id="circle" cx="64.000000" cy="64.000000" r="64.000000" fill="#FFFFFF" fill-opacity="1.000000"/>
		<path id="triangle" d="M55.33 15L17.23 81C13.38 87.66 18.19 96 25.89 96L102.1 96C109.8 96 114.61 87.66 110.76 81L72.66 15C68.81 8.33 59.18 8.33 55.33 15Z" fill="#000000" fill-opacity="1.000000" fill-rule="evenodd"/>
		<path id="DEV" d="M21.11 53.82Q22.43 55 24.78 55L31.59 55Q36.89 55 40.75 52.64Q40.84 52.58 40.93 52.52Q43.12 51.14 44.72 49.25Q45.98 47.77 46.86 45.97Q47.63 44.42 48.1 42.79Q48.88 40.12 48.88 37.23Q48.88 33.89 47.88 30.89Q47.46 29.62 46.86 28.41Q45.96 26.57 44.66 25.06Q43.08 23.22 40.93 21.88Q40.89 21.85 40.86 21.83Q36.96 19.43 31.59 19.43L24.78 19.43Q22.45 19.43 21.14 20.59Q21.05 20.67 20.96 20.75Q20.88 20.84 20.8 20.92Q19.64 22.22 19.64 24.56L19.64 49.86Q19.64 52.2 20.8 53.51Q20.88 53.6 20.96 53.68Q21.04 53.75 21.11 53.82ZM26.07 25.66L26.07 48.76L31.59 48.76Q35.24 48.76 37.66 47.32Q38.83 46.63 39.7 45.67Q40.65 44.64 41.26 43.29Q42.44 40.69 42.44 37.23Q42.44 33.68 41.28 31.09Q40.68 29.74 39.74 28.71Q38.87 27.76 37.71 27.08Q35.3 25.66 31.59 25.66L26.07 25.66ZM56.11 53.82Q57.42 55 59.78 55L73.26 55Q74.67 55 75.44 54.3Q75.49 54.26 75.54 54.21Q75.6 54.15 75.65 54.09Q76.33 53.3 76.33 51.92L76.33 51.83Q76.33 50.45 75.65 49.68Q75.6 49.62 75.54 49.56Q75.48 49.5 75.42 49.44Q74.64 48.76 73.26 48.76L61.07 48.76L61.07 40.07L71.92 40.07Q73.23 40.07 73.94 39.41Q73.98 39.37 74.03 39.33Q74.09 39.26 74.15 39.19Q74.75 38.46 74.75 37.23L74.75 37.14Q74.75 35.82 74.1 35.11Q74.06 35.08 74.03 35.04Q74 35.01 73.96 34.98Q73.25 34.31 71.92 34.31L61.07 34.31L61.07 25.66L73.26 25.66Q74.67 25.66 75.44 24.97Q75.49 24.92 75.54 24.88Q75.6 24.82 75.65 24.75Q76.33 23.97 76.33 22.59L76.33 22.5Q76.33 21.12 75.65 20.34Q75.6 20.28 75.54 20.23Q75.48 20.17 75.42 20.11Q74.64 19.43 73.26 19.43L59.78 19.43Q57.44 19.43 56.13 20.59Q56.04 20.67 55.96 20.75Q55.87 20.84 55.79 20.92Q54.63 22.22 54.63 24.56L54.63 49.86Q54.63 52.2 55.79 53.51Q55.87 53.6 55.96 53.68Q56.03 53.75 56.11 53.82ZM106.83 19.82Q105.58 20.47 104.89 22.21L95.87 45.88L86.84 22.21Q86.15 20.47 84.9 19.82Q84.15 19.43 83.2 19.43L83.05 19.43Q81.48 19.43 80.69 20.21Q80.56 20.34 80.46 20.48Q80.33 20.67 80.23 20.87Q79.8 21.83 80.32 23.21L91.65 52.11Q92.25 53.61 93.35 54.33Q94.37 55 95.82 55L95.91 55Q97.36 55 98.38 54.33Q99.49 53.61 100.09 52.11L111.42 23.21Q111.93 21.84 111.5 20.89Q111.41 20.68 111.27 20.48Q111.16 20.34 111.03 20.21Q110.25 19.43 108.69 19.43L108.54 19.43Q107.58 19.43 106.83 19.82Z" fill="#000000" fill-opacity="1.000000" fill-rule="evenodd"/>
		<mask id="mask4_865" mask-type="alpha" maskUnits="userSpaceOnUse" x="0.000000" y="0.000000" width="128.000000" height="128.000000">
			<path id="triangle" d="M55.33 15L17.23 81C13.38 87.66 18.19 96 25.89 96L102.1 96C109.8 96 114.61 87.66 110.76 81L72.66 15C68.81 8.33 59.18 8.33 55.33 15Z" fill="#000000" fill-opacity="1.000000" fill-rule="evenodd"/>
		</mask>
		<g mask="url(#mask4_865)">
			<path id="DEV" d="M21.11 53.82Q22.43 55 24.78 55L31.59 55Q36.89 55 40.75 52.64Q40.84 52.58 40.93 52.52Q43.12 51.14 44.72 49.25Q45.98 47.77 46.86 45.97Q47.63 44.42 48.1 42.79Q48.88 40.12 48.88 37.23Q48.88 33.89 47.88 30.89Q47.46 29.62 46.86 28.41Q45.96 26.57 44.66 25.06Q43.08 23.22 40.93 21.88Q40.89 21.85 40.86 21.83Q36.96 19.43 31.59 19.43L24.78 19.43Q22.45 19.43 21.14 20.59Q21.05 20.67 20.96 20.75Q20.88 20.84 20.8 20.92Q19.64 22.22 19.64 24.56L19.64 49.86Q19.64 52.2 20.8 53.51Q20.88 53.6 20.96 53.68Q21.04 53.75 21.11 53.82ZM26.07 25.66L26.07 48.76L31.59 48.76Q35.24 48.76 37.66 47.32Q38.83 46.63 39.7 45.67Q40.65 44.64 41.26 43.29Q42.44 40.69 42.44 37.23Q42.44 33.68 41.28 31.09Q40.68 29.74 39.74 28.71Q38.87 27.76 37.71 27.08Q35.3 25.66 31.59 25.66L26.07 25.66ZM56.11 53.82Q57.42 55 59.78 55L73.26 55Q74.67 55 75.44 54.3Q75.49 54.26 75.54 54.21Q75.6 54.15 75.65 54.09Q76.33 53.3 76.33 51.92L76.33 51.83Q76.33 50.45 75.65 49.68Q75.6 49.62 75.54 49.56Q75.48 49.5 75.42 49.44Q74.64 48.76 73.26 48.76L61.07 48.76L61.07 40.07L71.92 40.07Q73.23 40.07 73.94 39.41Q73.98 39.37 74.03 39.33Q74.09 39.26 74.15 39.19Q74.75 38.46 74.75 37.23L74.75 37.14Q74.75 35.82 74.1 35.11Q74.06 35.08 74.03 35.04Q74 35.01 73.96 34.98Q73.25 34.31 71.92 34.31L61.07 34.31L61.07 25.66L73.26 25.66Q74.67 25.66 75.44 24.97Q75.49 24.92 75.54 24.88Q75.6 24.82 75.65 24.75Q76.33 23.97 76.33 22.59L76.33 22.5Q76.33 21.12 75.65 20.34Q75.6 20.28 75.54 20.23Q75.48 20.17 75.42 20.11Q74.64 19.43 73.26 19.43L59.78 19.43Q57.44 19.43 56.13 20.59Q56.04 20.67 55.96 20.75Q55.87 20.84 55.79 20.92Q54.63 22.22 54.63 24.56L54.63 49.86Q54.63 52.2 55.79 53.51Q55.87 53.6 55.96 53.68Q56.03 53.75 56.11 53.82ZM106.83 19.82Q105.58 20.47 104.89 22.21L95.87 45.88L86.84 22.21Q86.15 20.47 84.9 19.82Q84.15 19.43 83.2 19.43L83.05 19.43Q81.48 19.43 80.69 20.21Q80.56 20.34 80.46 20.48Q80.33 20.67 80.23 20.87Q79.8 21.83 80.32 23.21L91.65 52.11Q92.25 53.61 93.35 54.33Q94.37 55 95.82 55L95.91 55Q97.36 55 98.38 54.33Q99.49 53.61 100.09 52.11L111.42 23.21Q111.93 21.84 111.5 20.89Q111.41 20.68 111.27 20.48Q111.16 20.34 111.03 20.21Q110.25 19.43 108.69 19.43L108.54 19.43Q107.58 19.43 106.83 19.82Z" fill="#FFFFFF" fill-opacity="1.000000" fill-rule="evenodd"/>
		</g>
		<path id="elk" d="M68.35 92.17Q69.06 91.4 69.06 89.97L69.06 59.63Q69.06 58.2 68.35 57.44Q68.32 57.41 68.29 57.38Q68.26 57.35 68.23 57.32Q67.47 56.61 66.04 56.61L65.95 56.61Q64.52 56.61 63.75 57.32Q63.72 57.35 63.68 57.38Q63.67 57.4 63.65 57.42Q62.92 58.18 62.92 59.63L62.92 89.97Q62.92 91.42 63.65 92.19Q63.67 92.21 63.68 92.23Q63.7 92.25 63.72 92.27Q64.49 93 65.95 93L66.04 93Q67.49 93 68.25 92.27Q68.27 92.25 68.29 92.23Q68.32 92.2 68.35 92.17ZM80.4 92.17Q81.11 91.4 81.11 89.97L81.11 84.27L89.32 91.46Q90.28 92.28 91.22 92.64Q92.15 93 93.36 93L94.03 93Q94.98 93 95.62 92.55Q95.72 92.48 95.82 92.4Q96.16 92.11 96.31 91.75Q96.47 91.35 96.42 90.86Q96.33 89.92 95.27 88.96L84.24 79.24L93.02 71.58Q94.12 70.62 94.31 69.66Q94.41 69.17 94.26 68.77Q94.11 68.41 93.74 68.13Q92.97 67.55 91.53 67.55L91.05 67.55Q89.8 67.55 88.86 67.92Q87.93 68.28 87.02 69.14L81.11 74.5L81.11 59.63Q81.11 58.2 80.4 57.44Q80.37 57.41 80.34 57.38Q80.31 57.35 80.28 57.32Q79.52 56.61 78.09 56.61L78 56.61Q76.57 56.61 75.8 57.32Q75.77 57.35 75.74 57.38Q75.72 57.4 75.7 57.42Q74.97 58.18 74.97 59.63L74.97 89.97Q74.97 91.42 75.7 92.19Q75.72 92.21 75.74 92.23Q75.75 92.25 75.77 92.27Q76.55 93 78 93L78.09 93Q79.54 93 80.3 92.27Q80.32 92.25 80.34 92.23Q80.37 92.2 80.4 92.17ZM57.42 80.01Q58.02 78.91 57.69 77.3Q57.02 73.94 55.19 71.64Q53.81 69.89 52.02 68.8Q51.46 68.46 50.85 68.19Q50.12 67.85 49.36 67.61Q47.49 67.03 45.45 67.03Q42.15 67.03 39.43 68.29Q38.99 68.5 38.56 68.74Q36.93 69.65 35.68 70.93Q34.6 72.04 33.8 73.44Q33.55 73.89 33.33 74.37Q32.1 77.01 32.1 80.22Q32.1 83.42 33.31 86.07Q33.54 86.57 33.8 87.04Q34.5 88.28 35.44 89.3Q36.79 90.78 38.63 91.8Q41.76 93.52 45.93 93.52Q46.46 93.52 46.99 93.48Q48.89 93.31 50.75 92.56Q51.52 92.25 52.26 91.85Q53.77 91.04 55.1 89.88Q55.97 89.04 56.02 88.16Q56.03 87.98 56.01 87.79Q56 87.71 55.98 87.63Q55.77 86.64 54.62 85.85L54.48 85.75Q53.45 85.05 52.54 85.17Q52.51 85.17 52.48 85.18Q51.55 85.32 50.44 86.22Q49.69 86.91 48.8 87.34Q48.57 87.45 48.32 87.55Q47.79 87.76 47.23 87.87Q46.6 88 45.93 88Q43.24 88 41.46 87.11Q40.45 86.61 39.74 85.83Q39.19 85.24 38.82 84.5Q38.25 83.36 38.06 81.86L53.56 81.86Q55.55 81.86 56.7 80.88Q56.83 80.77 56.95 80.64Q57.23 80.35 57.42 80.01ZM51.57 76.51Q51.64 76.68 51.71 76.87L38.48 76.87Q38.63 76.45 38.82 76.06Q39.33 75.04 40.11 74.31Q40.66 73.8 41.34 73.44Q43 72.55 45.45 72.55Q47.52 72.55 49.07 73.45Q49.09 73.47 49.12 73.48Q50.68 74.42 51.57 76.51Z" fill="#FFFFFF" fill-opacity="1.000000" fill-rule="evenodd"/>
	</g>
</svg>
