<svg xmlns="http://www.w3.org/2000/svg" version="1.1" viewBox="0.00 0.00 512.00 512.00" width="512.00" height="512.00">
<g stroke-width="2.00" fill="none" stroke-linecap="butt">
<path stroke="#808080" d="&#10;  M 129.65 220.13&#10;  A 0.87 0.86 -66.0 0 0 128.64 220.52&#10;  Q 86.37 293.99 73.91 315.30&#10;  Q 66.29 328.35 64.70 334.55&#10;  C 59.40 355.25 72.61 377.06 92.71 382.47&#10;  Q 98.51 384.03 114.00 384.03&#10;  Q 319.20 383.96 401.08 384.02&#10;  C 413.81 384.03 422.66 383.07 432.04 376.26&#10;  Q 441.87 369.13 446.19 356.83&#10;  Q 452.17 339.83 442.29 322.71&#10;  Q 403.82 256.07 383.52 220.82&#10;  A 1.30 1.27 -12.0 0 0 382.52 220.19&#10;  Q 370.69 219.22 366.30 207.95&#10;  Q 352.63 172.82 348.11 161.40&#10;  Q 345.73 155.39 340.30 145.94&#10;  Q 312.41 97.38 290.84 60.20&#10;  C 277.61 37.39 246.84 33.26 227.75 51.49&#10;  Q 223.92 55.15 215.81 69.29&#10;  Q 192.93 109.16 189.18 115.65&#10;  A 3.45 3.45 0.0 0 0 188.93 118.61&#10;  Q 196.77 139.44 193.94 159.84&#10;  C 189.64 190.86 168.79 214.83 137.10 219.29&#10;  Q 135.25 219.55 130.25 220.20&#10;  Q 129.96 220.23 129.65 220.13"/>
<path stroke="#808080" d="&#10;  M 383.42 182.27&#10;  Q 383.03 181.88 382.84 181.38&#10;  Q 377.65 167.83 348.01 89.75&#10;  C 345.73 83.77 342.29 78.34 335.51 77.49&#10;  C 327.37 76.47 318.10 79.38 320.45 89.77&#10;  Q 320.81 91.39 321.88 94.16&#10;  Q 331.52 119.19 344.49 151.78&#10;  Q 346.03 155.67 347.41 158.10&#10;  Q 360.30 180.85 382.69 219.45&#10;  A 1.05 1.02 -14.2 0 0 383.57 219.96&#10;  Q 391.08 220.13 396.12 215.47&#10;  Q 398.69 213.09 402.15 204.23&#10;  Q 419.33 160.15 445.77 92.48&#10;  Q 446.24 91.26 447.50 84.70&#10;  A 1.68 1.67 37.9 0 0 447.37 83.68&#10;  Q 446.09 81.05 441.97 77.48&#10;  A 1.26 1.24 60.3 0 0 440.94 77.19&#10;  C 437.34 77.82 432.77 76.67 429.25 77.93&#10;  C 423.62 79.95 420.95 84.52 418.84 90.08&#10;  Q 394.63 153.76 383.84 182.18&#10;  A 0.25 0.25 0.0 0 1 383.42 182.27"/>
<path stroke="#808080" d="&#10;  M 188.13 116.63&#10;  C 186.62 113.95 184.54 109.47 182.45 106.40&#10;  C 169.89 87.95 149.81 77.78 127.25 77.72&#10;  Q 106.16 77.67 97.75 77.78&#10;  Q 83.86 77.96 79.61 88.75&#10;  Q 78.11 92.55 78.11 102.92&#10;  Q 78.08 187.28 78.18 200.02&#10;  Q 78.30 214.34 89.48 218.71&#10;  Q 93.16 220.15 102.65 220.11&#10;  Q 125.84 220.01 127.97 220.01&#10;  A 1.73 1.73 0.0 0 0 129.47 219.14&#10;  L 144.49 193.13&#10;  A 4.83 4.81 -87.7 0 1 146.55 191.22&#10;  Q 164.00 182.73 167.80 163.32&#10;  Q 169.24 155.98 169.49 151.32&#10;  A 6.86 6.75 62.1 0 1 170.40 148.27&#10;  L 188.12 117.57&#10;  A 0.96 0.95 -44.7 0 0 188.13 116.63"/>
<path stroke="#808080" d="&#10;  M 243.72 102.75&#10;  Q 260.18 102.65 291.78 102.77&#10;  Q 300.34 102.80 303.35 96.99&#10;  C 306.40 91.10 304.78 81.99 298.68 78.89&#10;  Q 296.39 77.72 290.15 77.73&#10;  Q 269.33 77.76 242.20 77.77&#10;  Q 239.34 77.77 239.30 77.76&#10;  C 226.71 77.16 218.11 84.39 218.12 97.26&#10;  Q 218.15 159.44 218.08 194.66&#10;  C 218.05 205.84 218.97 214.07 229.15 218.65&#10;  Q 233.00 220.38 246.02 220.09&#10;  Q 247.43 220.06 285.79 220.08&#10;  Q 294.96 220.08 296.61 219.64&#10;  C 302.16 218.14 304.73 213.54 304.77 207.96&#10;  C 304.82 200.40 301.01 195.09 293.15 195.09&#10;  Q 248.29 195.06 243.91 195.03&#10;  A 0.56 0.55 0.5 0 1 243.36 194.48&#10;  L 243.36 160.72&#10;  A 0.72 0.71 81.0 0 1 243.85 160.04&#10;  Q 244.78 159.72 247.00 159.72&#10;  Q 281.11 159.71 287.75 159.72&#10;  C 293.69 159.73 297.54 157.00 298.60 151.17&#10;  Q 299.40 146.78 298.22 143.74&#10;  Q 295.61 137.07 287.74 136.84&#10;  Q 287.55 136.84 244.36 137.00&#10;  A 1.00 1.00 0.0 0 1 243.36 136.00&#10;  L 243.36 103.12&#10;  A 0.37 0.36 90.0 0 1 243.72 102.75"/>
<path stroke="#808080" d="&#10;  M 276.59 236.96&#10;  A 10.74 10.74 0.0 0 0 265.85 226.22&#10;  L 262.15 226.22&#10;  A 10.74 10.74 0.0 0 0 251.41 236.96&#10;  L 251.41 361.24&#10;  A 10.74 10.74 0.0 0 0 262.15 371.98&#10;  L 265.85 371.98&#10;  A 10.74 10.74 0.0 0 0 276.59 361.24&#10;  L 276.59 236.96"/>
<path stroke="#808080" d="&#10;  M 325.32 296.34&#10;  Q 325.29 296.29 325.30 295.76&#10;  Q 325.42 279.04 325.41 244.04&#10;  Q 325.41 234.95 324.68 233.09&#10;  C 321.98 226.21 314.30 225.15 307.89 226.81&#10;  C 302.99 228.08 300.19 232.46 300.19 237.26&#10;  Q 300.12 308.52 300.21 360.74&#10;  C 300.22 369.99 307.81 372.98 316.10 371.78&#10;  C 324.33 370.59 325.51 364.64 325.43 356.73&#10;  Q 325.33 346.14 325.41 338.53&#10;  A 0.38 0.38 0.0 0 1 326.00 338.22&#10;  Q 326.83 338.79 327.50 339.34&#10;  Q 334.63 345.28 350.23 359.08&#10;  Q 360.99 368.60 363.92 369.84&#10;  Q 372.47 373.46 380.92 371.44&#10;  C 386.66 370.07 388.47 363.40 384.71 358.79&#10;  Q 382.81 356.46 379.88 353.87&#10;  Q 361.88 338.01 338.57 317.42&#10;  A 0.74 0.74 0.0 0 1 338.57 316.31&#10;  Q 357.00 300.23 372.58 286.58&#10;  C 375.35 284.16 379.12 279.76 378.20 276.07&#10;  C 376.53 269.37 366.59 269.53 361.20 270.22&#10;  Q 354.68 271.06 349.11 276.13&#10;  Q 328.81 294.60 326.57 296.57&#10;  A 0.81 0.80 -34.3 0 1 325.32 296.34"/>
<path stroke="#808080" d="&#10;  M 153.34 328.20&#10;  Q 174.33 328.15 214.52 328.23&#10;  C 223.92 328.25 231.85 322.96 231.38 312.75&#10;  Q 231.26 310.24 229.49 304.01&#10;  C 223.71 283.59 207.71 269.92 186.45 267.88&#10;  C 165.18 265.85 144.42 275.75 134.27 294.99&#10;  C 125.93 310.82 126.15 331.89 134.85 347.62&#10;  Q 145.89 367.61 168.90 372.75&#10;  Q 196.85 379.00 217.78 361.66&#10;  C 223.94 356.56 227.30 351.14 220.81 344.74&#10;  Q 212.50 336.54 203.80 343.00&#10;  Q 203.65 343.12 199.55 346.26&#10;  C 191.89 352.13 182.46 352.50 173.07 350.39&#10;  Q 155.65 346.49 152.78 328.87&#10;  A 0.58 0.58 0.0 0 1 153.34 328.20"/>
<path stroke="#808080" d="&#10;  M 104.23 195.01&#10;  C 111.89 195.16 126.89 195.78 138.03 193.85&#10;  Q 141.49 193.25 143.66 192.20&#10;  A 6.74 6.67 -87.6 0 0 146.52 189.54&#10;  Q 164.59 158.26 168.24 151.98&#10;  Q 169.21 150.30 169.26 148.25&#10;  C 169.69 131.77 163.29 113.53 146.97 106.75&#10;  Q 138.31 103.16 130.67 102.92&#10;  Q 119.54 102.57 103.92 102.85&#10;  A 0.55 0.54 -0.5 0 0 103.38 103.39&#10;  L 103.38 194.15&#10;  A 0.87 0.86 0.7 0 0 104.23 195.01"/>
<path stroke="#808080" d="&#10;  M 180.52 307.94&#10;  Q 202.35 307.92 205.96 307.99&#10;  A 0.66 0.66 0.0 0 0 206.59 307.09&#10;  C 202.08 295.47 192.50 290.51 180.49 290.53&#10;  C 168.49 290.54 158.92 295.52 154.44 307.15&#10;  A 0.66 0.66 0.0 0 0 155.07 308.05&#10;  Q 158.68 307.97 180.52 307.94"/>
</g>
<path fill="#000000" d="&#10;  M 512.00 0.00&#10;  L 512.00 512.00&#10;  L 0.00 512.00&#10;  L 0.00 0.00&#10;  L 512.00 0.00&#10;  Z&#10;  M 129.65 220.13&#10;  A 0.87 0.86 -66.0 0 0 128.64 220.52&#10;  Q 86.37 293.99 73.91 315.30&#10;  Q 66.29 328.35 64.70 334.55&#10;  C 59.40 355.25 72.61 377.06 92.71 382.47&#10;  Q 98.51 384.03 114.00 384.03&#10;  Q 319.20 383.96 401.08 384.02&#10;  C 413.81 384.03 422.66 383.07 432.04 376.26&#10;  Q 441.87 369.13 446.19 356.83&#10;  Q 452.17 339.83 442.29 322.71&#10;  Q 403.82 256.07 383.52 220.82&#10;  A 1.30 1.27 -12.0 0 0 382.52 220.19&#10;  Q 370.69 219.22 366.30 207.95&#10;  Q 352.63 172.82 348.11 161.40&#10;  Q 345.73 155.39 340.30 145.94&#10;  Q 312.41 97.38 290.84 60.20&#10;  C 277.61 37.39 246.84 33.26 227.75 51.49&#10;  Q 223.92 55.15 215.81 69.29&#10;  Q 192.93 109.16 189.18 115.65&#10;  A 3.45 3.45 0.0 0 0 188.93 118.61&#10;  Q 196.77 139.44 193.94 159.84&#10;  C 189.64 190.86 168.79 214.83 137.10 219.29&#10;  Q 135.25 219.55 130.25 220.20&#10;  Q 129.96 220.23 129.65 220.13&#10;  Z&#10;  M 383.42 182.27&#10;  Q 383.03 181.88 382.84 181.38&#10;  Q 377.65 167.83 348.01 89.75&#10;  C 345.73 83.77 342.29 78.34 335.51 77.49&#10;  C 327.37 76.47 318.10 79.38 320.45 89.77&#10;  Q 320.81 91.39 321.88 94.16&#10;  Q 331.52 119.19 344.49 151.78&#10;  Q 346.03 155.67 347.41 158.10&#10;  Q 360.30 180.85 382.69 219.45&#10;  A 1.05 1.02 -14.2 0 0 383.57 219.96&#10;  Q 391.08 220.13 396.12 215.47&#10;  Q 398.69 213.09 402.15 204.23&#10;  Q 419.33 160.15 445.77 92.48&#10;  Q 446.24 91.26 447.50 84.70&#10;  A 1.68 1.67 37.9 0 0 447.37 83.68&#10;  Q 446.09 81.05 441.97 77.48&#10;  A 1.26 1.24 60.3 0 0 440.94 77.19&#10;  C 437.34 77.82 432.77 76.67 429.25 77.93&#10;  C 423.62 79.95 420.95 84.52 418.84 90.08&#10;  Q 394.63 153.76 383.84 182.18&#10;  A 0.25 0.25 0.0 0 1 383.42 182.27&#10;  Z&#10;  M 188.13 116.63&#10;  C 186.62 113.95 184.54 109.47 182.45 106.40&#10;  C 169.89 87.95 149.81 77.78 127.25 77.72&#10;  Q 106.16 77.67 97.75 77.78&#10;  Q 83.86 77.96 79.61 88.75&#10;  Q 78.11 92.55 78.11 102.92&#10;  Q 78.08 187.28 78.18 200.02&#10;  Q 78.30 214.34 89.48 218.71&#10;  Q 93.16 220.15 102.65 220.11&#10;  Q 125.84 220.01 127.97 220.01&#10;  A 1.73 1.73 0.0 0 0 129.47 219.14&#10;  L 144.49 193.13&#10;  A 4.83 4.81 -87.7 0 1 146.55 191.22&#10;  Q 164.00 182.73 167.80 163.32&#10;  Q 169.24 155.98 169.49 151.32&#10;  A 6.86 6.75 62.1 0 1 170.40 148.27&#10;  L 188.12 117.57&#10;  A 0.96 0.95 -44.7 0 0 188.13 116.63&#10;  Z"/>
<path fill="#ffffff" d="&#10;  M 129.65 220.13&#10;  Q 129.96 220.23 130.25 220.20&#10;  Q 135.25 219.55 137.10 219.29&#10;  C 168.79 214.83 189.64 190.86 193.94 159.84&#10;  Q 196.77 139.44 188.93 118.61&#10;  A 3.45 3.45 0.0 0 1 189.18 115.65&#10;  Q 192.93 109.16 215.81 69.29&#10;  Q 223.92 55.15 227.75 51.49&#10;  C 246.84 33.26 277.61 37.39 290.84 60.20&#10;  Q 312.41 97.38 340.30 145.94&#10;  Q 345.73 155.39 348.11 161.40&#10;  Q 352.63 172.82 366.30 207.95&#10;  Q 370.69 219.22 382.52 220.19&#10;  A 1.30 1.27 -12.0 0 1 383.52 220.82&#10;  Q 403.82 256.07 442.29 322.71&#10;  Q 452.17 339.83 446.19 356.83&#10;  Q 441.87 369.13 432.04 376.26&#10;  C 422.66 383.07 413.81 384.03 401.08 384.02&#10;  Q 319.20 383.96 114.00 384.03&#10;  Q 98.51 384.03 92.71 382.47&#10;  C 72.61 377.06 59.40 355.25 64.70 334.55&#10;  Q 66.29 328.35 73.91 315.30&#10;  Q 86.37 293.99 128.64 220.52&#10;  A 0.87 0.86 -66.0 0 1 129.65 220.13&#10;  Z&#10;  M 243.72 102.75&#10;  Q 260.18 102.65 291.78 102.77&#10;  Q 300.34 102.80 303.35 96.99&#10;  C 306.40 91.10 304.78 81.99 298.68 78.89&#10;  Q 296.39 77.72 290.15 77.73&#10;  Q 269.33 77.76 242.20 77.77&#10;  Q 239.34 77.77 239.30 77.76&#10;  C 226.71 77.16 218.11 84.39 218.12 97.26&#10;  Q 218.15 159.44 218.08 194.66&#10;  C 218.05 205.84 218.97 214.07 229.15 218.65&#10;  Q 233.00 220.38 246.02 220.09&#10;  Q 247.43 220.06 285.79 220.08&#10;  Q 294.96 220.08 296.61 219.64&#10;  C 302.16 218.14 304.73 213.54 304.77 207.96&#10;  C 304.82 200.40 301.01 195.09 293.15 195.09&#10;  Q 248.29 195.06 243.91 195.03&#10;  A 0.56 0.55 0.5 0 1 243.36 194.48&#10;  L 243.36 160.72&#10;  A 0.72 0.71 81.0 0 1 243.85 160.04&#10;  Q 244.78 159.72 247.00 159.72&#10;  Q 281.11 159.71 287.75 159.72&#10;  C 293.69 159.73 297.54 157.00 298.60 151.17&#10;  Q 299.40 146.78 298.22 143.74&#10;  Q 295.61 137.07 287.74 136.84&#10;  Q 287.55 136.84 244.36 137.00&#10;  A 1.00 1.00 0.0 0 1 243.36 136.00&#10;  L 243.36 103.12&#10;  A 0.37 0.36 90.0 0 1 243.72 102.75&#10;  Z&#10;  M 276.59 236.96&#10;  A 10.74 10.74 0.0 0 0 265.85 226.22&#10;  L 262.15 226.22&#10;  A 10.74 10.74 0.0 0 0 251.41 236.96&#10;  L 251.41 361.24&#10;  A 10.74 10.74 0.0 0 0 262.15 371.98&#10;  L 265.85 371.98&#10;  A 10.74 10.74 0.0 0 0 276.59 361.24&#10;  L 276.59 236.96&#10;  Z&#10;  M 325.32 296.34&#10;  Q 325.29 296.29 325.30 295.76&#10;  Q 325.42 279.04 325.41 244.04&#10;  Q 325.41 234.95 324.68 233.09&#10;  C 321.98 226.21 314.30 225.15 307.89 226.81&#10;  C 302.99 228.08 300.19 232.46 300.19 237.26&#10;  Q 300.12 308.52 300.21 360.74&#10;  C 300.22 369.99 307.81 372.98 316.10 371.78&#10;  C 324.33 370.59 325.51 364.64 325.43 356.73&#10;  Q 325.33 346.14 325.41 338.53&#10;  A 0.38 0.38 0.0 0 1 326.00 338.22&#10;  Q 326.83 338.79 327.50 339.34&#10;  Q 334.63 345.28 350.23 359.08&#10;  Q 360.99 368.60 363.92 369.84&#10;  Q 372.47 373.46 380.92 371.44&#10;  C 386.66 370.07 388.47 363.40 384.71 358.79&#10;  Q 382.81 356.46 379.88 353.87&#10;  Q 361.88 338.01 338.57 317.42&#10;  A 0.74 0.74 0.0 0 1 338.57 316.31&#10;  Q 357.00 300.23 372.58 286.58&#10;  C 375.35 284.16 379.12 279.76 378.20 276.07&#10;  C 376.53 269.37 366.59 269.53 361.20 270.22&#10;  Q 354.68 271.06 349.11 276.13&#10;  Q 328.81 294.60 326.57 296.57&#10;  A 0.81 0.80 -34.3 0 1 325.32 296.34&#10;  Z&#10;  M 153.34 328.20&#10;  Q 174.33 328.15 214.52 328.23&#10;  C 223.92 328.25 231.85 322.96 231.38 312.75&#10;  Q 231.26 310.24 229.49 304.01&#10;  C 223.71 283.59 207.71 269.92 186.45 267.88&#10;  C 165.18 265.85 144.42 275.75 134.27 294.99&#10;  C 125.93 310.82 126.15 331.89 134.85 347.62&#10;  Q 145.89 367.61 168.90 372.75&#10;  Q 196.85 379.00 217.78 361.66&#10;  C 223.94 356.56 227.30 351.14 220.81 344.74&#10;  Q 212.50 336.54 203.80 343.00&#10;  Q 203.65 343.12 199.55 346.26&#10;  C 191.89 352.13 182.46 352.50 173.07 350.39&#10;  Q 155.65 346.49 152.78 328.87&#10;  A 0.58 0.58 0.0 0 1 153.34 328.20&#10;  Z"/>
<path fill="#ffffff" d="&#10;  M 383.42 182.27&#10;  A 0.25 0.25 0.0 0 0 383.84 182.18&#10;  Q 394.63 153.76 418.84 90.08&#10;  C 420.95 84.52 423.62 79.95 429.25 77.93&#10;  C 432.77 76.67 437.34 77.82 440.94 77.19&#10;  A 1.26 1.24 60.3 0 1 441.97 77.48&#10;  Q 446.09 81.05 447.37 83.68&#10;  A 1.68 1.67 37.9 0 1 447.50 84.70&#10;  Q 446.24 91.26 445.77 92.48&#10;  Q 419.33 160.15 402.15 204.23&#10;  Q 398.69 213.09 396.12 215.47&#10;  Q 391.08 220.13 383.57 219.96&#10;  A 1.05 1.02 -14.2 0 1 382.69 219.45&#10;  Q 360.30 180.85 347.41 158.10&#10;  Q 346.03 155.67 344.49 151.78&#10;  Q 331.52 119.19 321.88 94.16&#10;  Q 320.81 91.39 320.45 89.77&#10;  C 318.10 79.38 327.37 76.47 335.51 77.49&#10;  C 342.29 78.34 345.73 83.77 348.01 89.75&#10;  Q 377.65 167.83 382.84 181.38&#10;  Q 383.03 181.88 383.42 182.27&#10;  Z"/>
<path fill="#ffffff" d="&#10;  M 188.12 117.57&#10;  L 170.40 148.27&#10;  A 6.86 6.75 62.1 0 0 169.49 151.32&#10;  Q 169.24 155.98 167.80 163.32&#10;  Q 164.00 182.73 146.55 191.22&#10;  A 4.83 4.81 -87.7 0 0 144.49 193.13&#10;  L 129.47 219.14&#10;  A 1.73 1.73 0.0 0 1 127.97 220.01&#10;  Q 125.84 220.01 102.65 220.11&#10;  Q 93.16 220.15 89.48 218.71&#10;  Q 78.30 214.34 78.18 200.02&#10;  Q 78.08 187.28 78.11 102.92&#10;  Q 78.11 92.55 79.61 88.75&#10;  Q 83.86 77.96 97.75 77.78&#10;  Q 106.16 77.67 127.25 77.72&#10;  C 149.81 77.78 169.89 87.95 182.45 106.40&#10;  C 184.54 109.47 186.62 113.95 188.13 116.63&#10;  A 0.96 0.95 -44.7 0 1 188.12 117.57&#10;  Z&#10;  M 104.23 195.01&#10;  C 111.89 195.16 126.89 195.78 138.03 193.85&#10;  Q 141.49 193.25 143.66 192.20&#10;  A 6.74 6.67 -87.6 0 0 146.52 189.54&#10;  Q 164.59 158.26 168.24 151.98&#10;  Q 169.21 150.30 169.26 148.25&#10;  C 169.69 131.77 163.29 113.53 146.97 106.75&#10;  Q 138.31 103.16 130.67 102.92&#10;  Q 119.54 102.57 103.92 102.85&#10;  A 0.55 0.54 -0.5 0 0 103.38 103.39&#10;  L 103.38 194.15&#10;  A 0.87 0.86 0.7 0 0 104.23 195.01&#10;  Z"/>
<path fill="#000000" d="&#10;  M 243.72 102.75&#10;  A 0.37 0.36 90.0 0 0 243.36 103.12&#10;  L 243.36 136.00&#10;  A 1.00 1.00 0.0 0 0 244.36 137.00&#10;  Q 287.55 136.84 287.74 136.84&#10;  Q 295.61 137.07 298.22 143.74&#10;  Q 299.40 146.78 298.60 151.17&#10;  C 297.54 157.00 293.69 159.73 287.75 159.72&#10;  Q 281.11 159.71 247.00 159.72&#10;  Q 244.78 159.72 243.85 160.04&#10;  A 0.72 0.71 81.0 0 0 243.36 160.72&#10;  L 243.36 194.48&#10;  A 0.56 0.55 0.5 0 0 243.91 195.03&#10;  Q 248.29 195.06 293.15 195.09&#10;  C 301.01 195.09 304.82 200.40 304.77 207.96&#10;  C 304.73 213.54 302.16 218.14 296.61 219.64&#10;  Q 294.96 220.08 285.79 220.08&#10;  Q 247.43 220.06 246.02 220.09&#10;  Q 233.00 220.38 229.15 218.65&#10;  C 218.97 214.07 218.05 205.84 218.08 194.66&#10;  Q 218.15 159.44 218.12 97.26&#10;  C 218.11 84.39 226.71 77.16 239.30 77.76&#10;  Q 239.34 77.77 242.20 77.77&#10;  Q 269.33 77.76 290.15 77.73&#10;  Q 296.39 77.72 298.68 78.89&#10;  C 304.78 81.99 306.40 91.10 303.35 96.99&#10;  Q 300.34 102.80 291.78 102.77&#10;  Q 260.18 102.65 243.72 102.75&#10;  Z"/>
<path fill="#000000" d="&#10;  M 104.23 195.01&#10;  A 0.87 0.86 0.7 0 1 103.38 194.15&#10;  L 103.38 103.39&#10;  A 0.55 0.54 -0.5 0 1 103.92 102.85&#10;  Q 119.54 102.57 130.67 102.92&#10;  Q 138.31 103.16 146.97 106.75&#10;  C 163.29 113.53 169.69 131.77 169.26 148.25&#10;  Q 169.21 150.30 168.24 151.98&#10;  Q 164.59 158.26 146.52 189.54&#10;  A 6.74 6.67 -87.6 0 1 143.66 192.20&#10;  Q 141.49 193.25 138.03 193.85&#10;  C 126.89 195.78 111.89 195.16 104.23 195.01&#10;  Z"/>
<rect fill="#000000" x="251.41" y="226.22" width="25.18" height="145.76" rx="10.74"/>
<path fill="#000000" d="&#10;  M 325.32 296.34&#10;  A 0.81 0.80 -34.3 0 0 326.57 296.57&#10;  Q 328.81 294.60 349.11 276.13&#10;  Q 354.68 271.06 361.20 270.22&#10;  C 366.59 269.53 376.53 269.37 378.20 276.07&#10;  C 379.12 279.76 375.35 284.16 372.58 286.58&#10;  Q 357.00 300.23 338.57 316.31&#10;  A 0.74 0.74 0.0 0 0 338.57 317.42&#10;  Q 361.88 338.01 379.88 353.87&#10;  Q 382.81 356.46 384.71 358.79&#10;  C 388.47 363.40 386.66 370.07 380.92 371.44&#10;  Q 372.47 373.46 363.92 369.84&#10;  Q 360.99 368.60 350.23 359.08&#10;  Q 334.63 345.28 327.50 339.34&#10;  Q 326.83 338.79 326.00 338.22&#10;  A 0.38 0.38 0.0 0 0 325.41 338.53&#10;  Q 325.33 346.14 325.43 356.73&#10;  C 325.51 364.64 324.33 370.59 316.10 371.78&#10;  C 307.81 372.98 300.22 369.99 300.21 360.74&#10;  Q 300.12 308.52 300.19 237.26&#10;  C 300.19 232.46 302.99 228.08 307.89 226.81&#10;  C 314.30 225.15 321.98 226.21 324.68 233.09&#10;  Q 325.41 234.95 325.41 244.04&#10;  Q 325.42 279.04 325.30 295.76&#10;  Q 325.29 296.29 325.32 296.34&#10;  Z"/>
<path fill="#000000" d="&#10;  M 153.34 328.20&#10;  A 0.58 0.58 0.0 0 0 152.78 328.87&#10;  Q 155.65 346.49 173.07 350.39&#10;  C 182.46 352.50 191.89 352.13 199.55 346.26&#10;  Q 203.65 343.12 203.80 343.00&#10;  Q 212.50 336.54 220.81 344.74&#10;  C 227.30 351.14 223.94 356.56 217.78 361.66&#10;  Q 196.85 379.00 168.90 372.75&#10;  Q 145.89 367.61 134.85 347.62&#10;  C 126.15 331.89 125.93 310.82 134.27 294.99&#10;  C 144.42 275.75 165.18 265.85 186.45 267.88&#10;  C 207.71 269.92 223.71 283.59 229.49 304.01&#10;  Q 231.26 310.24 231.38 312.75&#10;  C 231.85 322.96 223.92 328.25 214.52 328.23&#10;  Q 174.33 328.15 153.34 328.20&#10;  Z&#10;  M 180.52 307.94&#10;  Q 202.35 307.92 205.96 307.99&#10;  A 0.66 0.66 0.0 0 0 206.59 307.09&#10;  C 202.08 295.47 192.50 290.51 180.49 290.53&#10;  C 168.49 290.54 158.92 295.52 154.44 307.15&#10;  A 0.66 0.66 0.0 0 0 155.07 308.05&#10;  Q 158.68 307.97 180.52 307.94&#10;  Z"/>
<path fill="#ffffff" d="&#10;  M 180.49 290.53&#10;  C 192.50 290.51 202.08 295.47 206.59 307.09&#10;  A 0.66 0.66 0.0 0 1 205.96 307.99&#10;  Q 202.35 307.92 180.52 307.94&#10;  Q 158.68 307.97 155.07 308.05&#10;  A 0.66 0.66 0.0 0 1 154.44 307.15&#10;  C 158.92 295.52 168.49 290.54 180.49 290.53&#10;  Z"/>
</svg>